P2
# CREATOR: The GIMP's PNM Filter Version 1.0
128 32
255
51
51
51
51
51
51
51
51
51
51
51
51
51
51
51
51
51
51
51
51
51
51
51
51
51
51
51
51
51
51
51
51
51
51
51
51
51
51
51
51
51
51
51
51
51
51
51
51
51
51
51
51
51
51
51
51
51
51
51
51
51
51
51
51
51
51
51
51
51
51
51
51
51
51
51
51
51
51
51
51
51
51
51
51
51
51
51
51
51
51
51
51
51
51
51
51
51
51
51
51
51
51
51
51
51
51
51
51
51
51
51
51
51
51
51
51
51
51
51
51
51
51
51
51
51
51
51
51
51
51
51
51
51
51
51
51
51
51
51
51
84
51
84
51
84
51
51
51
51
51
51
51
51
51
51
51
51
51
51
51
51
51
51
51
51
51
51
51
51
51
51
51
51
51
51
51
51
51
51
51
51
51
51
51
51
51
51
51
51
51
51
51
51
51
51
51
51
51
51
51
51
51
51
51
51
51
51
51
51
51
51
51
51
51
51
51
51
51
51
51
51
51
51
51
51
51
51
51
51
51
51
51
51
51
51
51
51
51
51
51
51
51
51
51
51
51
51
51
51
51
51
51
51
51
51
51
51
51
51
51
51
51
51
51
51
51
51
51
51
84
51
51
51
84
51
51
51
51
51
51
51
51
51
51
51
51
51
51
51
51
51
51
51
51
51
51
51
51
51
51
51
51
51
51
51
51
51
51
51
51
51
51
51
51
51
51
51
51
51
51
51
51
51
51
51
51
51
51
51
51
51
51
51
51
51
51
51
51
51
51
51
51
51
51
51
51
51
51
51
51
51
51
51
51
51
51
51
51
51
51
51
51
51
51
51
51
51
51
51
51
51
51
51
51
51
51
51
51
51
51
51
51
51
51
51
51
51
51
51
51
51
51
51
51
84
51
84
51
84
51
84
51
84
51
51
51
51
51
51
51
51
51
51
51
51
51
51
51
51
51
51
51
51
51
51
51
51
51
51
51
51
51
51
51
51
51
51
51
51
51
51
51
51
51
51
51
51
51
51
51
51
51
51
51
51
51
51
51
51
51
51
51
51
51
51
51
51
51
51
51
51
51
51
51
51
51
51
51
51
51
51
51
51
51
51
51
51
51
51
51
51
51
51
51
51
51
51
51
51
51
51
51
51
51
51
51
51
51
51
51
51
51
51
51
51
51
51
51
51
51
51
51
51
84
255
255
255
255
51
51
51
51
51
51
51
51
51
51
51
51
51
51
51
51
51
51
51
51
51
51
51
51
51
51
51
51
51
51
51
51
51
51
51
51
51
51
51
51
51
51
51
51
51
51
51
51
51
51
51
51
51
51
51
51
51
51
51
51
51
51
51
51
51
51
51
51
51
51
51
51
51
51
51
51
51
51
51
51
51
51
51
51
51
51
51
51
51
51
51
51
51
51
51
51
51
51
51
51
51
51
51
51
51
51
51
51
51
51
51
51
51
51
51
51
51
51
51
51
51
51
84
255
255
255
255
255
84
51
84
51
84
51
51
51
51
51
51
51
51
51
51
51
51
51
51
51
51
51
51
51
51
51
51
51
51
51
51
51
51
51
51
51
51
51
51
51
51
51
51
51
51
51
51
51
51
51
51
51
51
51
51
51
51
51
51
51
51
51
51
51
51
51
51
51
51
51
51
51
51
51
51
51
51
51
51
51
51
51
51
51
51
51
51
51
51
51
51
51
51
51
51
51
51
51
51
51
51
51
51
51
51
51
51
51
51
51
51
51
51
51
51
51
51
51
51
51
51
51
51
255
255
255
255
255
51
84
51
51
51
84
51
51
51
51
51
51
51
51
51
51
51
51
51
51
51
51
51
51
51
51
51
51
51
51
51
51
51
51
51
51
51
51
51
51
51
51
51
51
51
51
51
51
51
51
51
51
51
51
51
51
51
51
51
51
51
51
51
51
51
51
51
51
51
51
51
51
51
51
51
51
51
51
51
51
51
51
51
51
51
51
51
51
51
51
51
51
51
51
51
51
51
51
51
51
51
51
51
51
51
51
51
51
51
51
51
51
51
51
51
51
51
51
51
51
84
51
84
255
255
255
255
51
84
51
84
51
84
51
51
51
51
51
51
51
51
51
51
51
51
51
51
51
51
51
51
51
51
51
51
51
51
51
51
51
51
51
51
51
51
51
51
51
51
51
51
51
51
51
51
51
51
51
51
51
51
51
51
51
51
51
51
51
51
51
51
51
51
51
51
51
51
51
51
51
51
51
51
51
51
51
51
51
51
51
51
51
51
51
51
51
51
51
51
51
51
51
51
51
51
51
51
51
51
51
51
51
51
51
51
51
51
51
51
51
51
51
51
51
51
51
51
51
51
51
51
51
255
51
51
255
255
255
255
51
51
51
51
51
51
51
51
51
51
51
51
51
51
51
51
51
51
51
51
51
51
51
255
255
255
255
255
255
255
255
255
51
51
255
255
255
255
255
255
51
51
51
51
255
255
255
255
255
255
255
51
51
51
255
255
255
255
255
255
255
255
255
51
51
51
51
51
255
255
255
255
255
51
51
51
51
51
51
51
255
255
255
255
255
51
51
51
51
255
255
255
255
255
255
255
255
255
255
51
51
51
51
51
51
51
51
51
51
51
51
51
51
51
51
51
51
84
255
84
51
84
51
255
255
255
255
255
255
84
51
84
51
51
51
51
51
51
51
51
51
51
51
51
51
51
51
51
51
51
51
255
255
255
255
255
255
255
255
255
255
84
255
255
255
255
255
255
51
51
51
255
255
255
255
255
255
255
255
255
51
51
255
255
255
255
255
255
255
255
255
255
51
51
51
255
255
255
255
255
255
255
51
51
51
51
51
255
255
255
255
255
255
255
51
51
255
255
255
255
255
255
255
255
255
255
255
255
51
51
51
51
51
51
51
51
51
51
51
51
51
51
84
51
51
255
255
255
51
255
255
255
255
255
255
255
255
51
84
51
51
51
51
51
51
51
51
51
51
51
51
51
51
51
51
51
51
51
51
51
255
255
255
255
51
255
255
255
255
51
51
255
255
255
255
51
51
51
255
255
255
255
84
51
51
255
255
255
51
51
51
255
255
255
255
51
51
51
255
255
51
51
255
255
255
51
51
255
255
255
255
51
51
51
255
255
255
51
51
255
255
255
255
51
255
255
255
51
255
255
255
255
51
255
255
255
51
51
51
51
51
51
51
51
51
51
51
51
51
51
51
84
255
255
255
84
51
255
255
255
255
255
255
255
255
255
51
84
51
51
51
51
51
51
51
51
51
51
51
51
51
51
51
51
51
51
51
51
255
255
255
255
51
255
255
255
255
84
51
255
255
255
255
84
51
255
255
255
255
84
51
51
51
51
255
255
51
51
51
255
255
255
255
84
255
255
51
255
51
255
255
255
255
84
51
255
255
255
255
255
51
255
255
255
255
84
51
255
255
255
255
255
255
255
51
51
255
255
255
255
51
51
255
255
51
51
51
51
51
51
51
51
51
51
51
51
51
51
51
51
84
51
51
51
255
255
255
255
255
255
255
255
255
255
51
51
84
51
51
51
51
51
51
51
51
51
51
51
51
51
51
51
51
51
51
51
255
255
255
255
255
255
255
255
84
51
51
255
255
255
255
51
51
255
255
255
255
51
51
51
51
51
51
51
51
51
51
255
255
255
255
255
255
255
51
51
51
255
255
255
255
51
51
51
255
255
255
255
84
255
255
255
255
51
51
51
255
255
255
255
84
51
51
51
255
255
255
255
84
51
51
51
51
51
51
51
51
51
51
51
51
51
51
51
51
84
51
84
255
255
51
84
255
255
255
255
255
255
255
255
255
255
255
84
51
84
51
51
51
51
51
51
51
51
51
51
51
51
51
51
51
51
51
51
255
255
255
255
255
255
255
255
51
51
51
255
255
255
255
84
51
255
255
255
255
84
51
255
255
255
255
255
255
84
51
255
255
255
255
255
255
255
51
51
51
255
255
255
255
84
51
51
255
255
255
255
51
255
255
255
255
84
51
51
255
255
255
255
51
51
51
51
255
255
255
255
51
51
51
51
51
51
51
51
51
51
51
51
51
51
51
51
51
51
84
51
255
255
84
255
255
255
255
255
255
255
255
255
255
255
255
255
51
51
84
51
84
51
51
51
51
51
51
51
51
51
51
51
51
51
51
51
255
255
255
255
51
255
255
255
255
51
51
255
255
255
255
51
51
255
255
255
255
51
51
255
255
255
255
255
255
51
51
255
255
255
255
51
255
255
84
51
51
255
255
255
255
51
51
51
255
255
255
255
51
255
255
255
255
51
51
51
255
255
255
255
51
51
51
51
255
255
255
255
51
51
51
51
51
51
51
51
51
51
51
51
51
51
51
51
84
51
51
84
51
84
51
255
255
255
255
255
255
255
255
255
255
255
255
255
255
84
51
84
51
84
51
51
51
51
51
51
51
51
51
51
51
51
51
51
255
255
255
255
51
255
255
255
255
84
51
255
255
255
255
84
51
255
255
255
255
255
51
51
51
255
255
255
51
51
51
255
255
255
255
84
255
255
51
51
51
255
255
255
255
255
51
51
255
255
255
255
51
255
255
255
255
255
51
51
255
255
255
255
51
51
51
51
255
255
255
255
51
51
51
51
51
51
51
51
51
51
51
51
51
51
51
51
84
51
51
255
255
255
51
255
255
255
255
255
255
255
255
255
255
255
255
51
255
255
51
51
51
51
51
51
51
51
51
51
51
51
51
51
51
51
51
51
255
255
255
255
84
255
255
255
255
51
51
255
255
255
255
51
51
51
255
255
255
255
51
51
255
255
255
51
51
51
51
255
255
255
255
51
84
51
51
51
51
51
255
255
255
255
51
51
255
255
255
51
51
51
255
255
255
255
51
51
255
255
255
51
51
51
51
51
255
255
255
255
51
51
51
51
51
51
51
51
51
51
51
51
51
51
51
51
51
84
51
84
255
255
51
255
255
255
255
255
255
255
255
255
255
255
255
84
51
255
255
84
51
51
51
51
51
51
51
51
51
51
51
51
51
51
51
255
255
255
255
255
255
255
255
255
51
51
255
255
255
255
255
255
51
51
51
255
255
255
255
255
255
255
255
51
51
51
255
255
255
255
255
255
51
51
51
51
51
51
51
255
255
255
255
255
255
255
51
51
51
51
51
255
255
255
255
255
255
255
51
51
51
51
51
255
255
255
255
255
255
84
51
51
51
51
51
51
51
51
51
51
51
51
51
51
51
51
84
51
51
51
84
255
255
255
255
255
255
255
255
255
255
255
84
255
255
51
255
255
51
51
51
51
51
51
51
51
51
51
51
51
51
51
51
255
255
255
255
255
255
255
255
51
51
51
255
255
255
255
255
255
51
51
51
51
255
255
255
255
255
51
84
51
51
51
255
255
255
255
255
255
51
51
51
51
51
51
51
51
255
255
255
255
255
51
51
51
51
51
51
51
255
255
255
255
255
51
51
51
51
51
51
255
255
255
255
255
255
51
51
51
51
51
51
51
51
51
51
51
51
51
51
51
51
84
51
84
51
84
51
255
255
255
255
255
255
255
255
255
255
84
255
255
255
255
255
255
255
84
51
84
51
51
51
51
51
51
51
51
51
51
51
51
51
84
51
84
51
84
51
51
51
51
51
84
51
84
51
84
51
51
51
51
51
84
51
84
51
51
51
51
51
51
51
84
51
84
51
84
51
51
51
51
51
51
51
51
51
84
51
84
51
51
51
51
51
51
51
51
51
84
51
84
51
51
51
51
51
51
51
51
51
84
51
84
51
51
51
51
51
51
51
51
51
51
51
51
51
51
51
51
51
51
51
51
84
51
51
51
255
255
255
255
255
255
255
255
255
255
255
255
255
255
255
255
255
255
51
51
84
51
84
51
51
51
51
51
51
51
51
51
51
51
51
51
51
51
51
51
51
51
51
51
51
51
51
51
51
51
51
51
51
51
51
51
51
51
51
51
51
51
51
51
51
51
51
51
51
51
51
51
51
51
51
51
51
51
51
51
51
51
51
51
51
51
51
51
51
51
51
51
51
51
51
51
51
51
51
51
51
51
51
51
51
51
51
51
51
51
51
51
51
51
51
51
51
51
51
51
51
51
51
51
51
51
51
84
51
84
51
255
255
255
255
255
255
255
255
255
255
255
255
255
255
255
51
84
51
84
51
51
51
51
51
51
51
51
51
51
51
51
51
51
51
51
51
51
51
51
51
51
51
51
51
51
51
51
51
51
51
51
51
51
51
51
51
51
51
51
51
51
51
51
51
51
51
51
51
51
51
51
51
51
51
51
51
51
51
51
51
51
51
51
51
51
51
51
51
51
51
51
51
51
51
51
51
51
51
51
51
51
51
51
51
51
51
51
51
51
51
51
51
51
51
51
51
51
51
51
51
51
51
51
84
51
51
51
84
51
51
255
255
255
255
255
255
255
255
255
255
255
255
255
84
51
51
51
51
51
51
51
51
51
51
51
51
51
51
51
51
51
51
51
51
51
51
51
51
51
51
51
51
51
51
51
51
51
51
51
51
51
51
51
51
51
51
51
51
51
51
51
51
51
51
51
51
51
51
51
51
51
51
51
51
51
51
51
51
51
51
51
51
51
51
51
51
51
51
51
51
51
51
51
51
51
51
51
51
51
51
51
51
51
51
51
51
51
51
51
51
51
51
51
51
51
51
51
51
51
51
51
51
84
51
51
51
84
51
84
255
255
255
255
255
255
255
255
255
255
255
255
51
84
51
84
51
51
51
51
51
51
51
51
51
51
51
51
51
51
51
51
51
51
51
51
51
51
51
51
51
51
51
51
51
51
51
51
51
51
51
51
51
51
51
51
51
51
51
51
51
51
51
51
51
51
51
51
51
51
51
51
51
51
51
51
51
51
51
51
51
51
51
51
51
51
51
51
51
51
51
51
51
51
51
51
51
51
51
51
51
51
51
51
51
51
51
51
51
51
51
51
51
51
51
51
51
51
51
51
51
51
51
51
51
51
84
51
51
255
255
255
255
255
255
255
255
255
255
51
51
51
84
51
51
51
51
51
51
51
51
51
51
51
51
51
51
51
51
51
51
51
51
51
51
51
51
51
51
51
51
51
51
51
51
51
51
51
51
51
51
51
51
51
51
51
51
51
51
51
51
51
51
51
51
51
51
51
51
51
51
51
51
51
51
51
51
51
51
51
51
51
51
51
51
51
51
51
51
51
51
51
51
51
51
51
51
51
51
51
51
51
51
51
51
51
51
51
51
51
51
51
51
51
51
51
51
51
51
51
51
51
51
51
51
84
51
84
255
255
255
255
255
255
255
255
51
84
51
84
51
51
51
51
51
51
51
51
51
51
51
51
51
51
51
51
51
51
51
51
51
51
51
51
51
51
51
51
51
51
51
51
51
51
51
51
51
51
51
51
51
51
51
51
51
51
51
51
51
51
51
51
51
51
51
51
51
51
51
51
51
51
51
51
51
51
51
51
51
51
51
51
51
51
51
51
51
51
51
51
51
51
51
51
51
51
51
51
51
51
51
51
51
51
51
51
51
51
51
51
51
51
51
51
51
51
51
51
51
51
51
51
51
51
84
51
51
51
255
255
255
255
255
51
51
51
84
51
51
51
51
51
51
51
51
51
51
51
51
51
51
51
51
51
51
51
51
51
51
51
51
51
51
51
51
51
51
51
51
51
51
51
51
51
51
51
51
51
51
51
51
51
51
51
51
51
51
51
51
51
51
51
51
51
51
51
51
51
51
51
51
51
51
51
51
51
51
51
51
51
51
51
51
51
51
51
51
51
51
51
51
51
51
51
51
51
51
51
51
51
51
51
51
51
51
51
51
51
51
51
51
51
51
51
51
51
51
51
51
51
51
84
51
84
51
84
51
84
51
84
51
84
51
84
51
51
51
51
51
51
51
51
51
51
51
51
51
51
51
51
51
51
51
51
51
51
51
51
51
51
51
51
51
51
51
51
51
51
51
51
51
51
51
51
51
51
51
51
51
51
51
51
51
51
51
51
51
51
51
51
51
51
51
51
51
51
51
51
51
51
51
51
51
51
51
51
51
51
51
51
51
51
51
51
51
51
51
51
51
51
51
51
51
51
51
51
51
51
51
51
51
51
51
51
51
51
51
51
51
51
51
51
51
51
51
51
51
51
51
51
84
51
84
51
51
51
84
51
51
51
84
51
51
51
51
51
51
51
51
51
51
51
51
51
51
51
51
51
51
51
51
51
51
51
51
51
51
51
51
51
51
51
51
51
51
51
51
51
51
51
51
51
51
51
51
51
51
51
51
51
51
51
51
51
51
51
51
51
51
51
51
51
51
51
51
51
51
51
51
51
51
51
51
51
51
51
51
51
51
51
51
51
51
51
51
51
51
51
51
51
51
51
51
51
51
51
51
51
51
51
51
51
51
51
51
51
51
51
51
51
51
51
51
51
51
51
51
51
51
51
51
84
51
84
51
84
51
51
51
84
51
51
51
51
51
51
51
51
51
51
51
51
51
51
51
51
51
51
51
51
51
51
51
51
51
51
51
51
51
51
51
51
51
51
51
51
51
51
51
51
51
51
51
51
51
51
51
51
51
51
51
51
51
51
51
51
51
51
51
51
51
51
51
51
51
51
51
51
51
51
51
51
51
51
51
51
51
51
51
51
51
51
51
51
51
51
51
51
51
51
51
51
51
51
51
51
51
51
51
51
51
51
51
51
51
51
51
51
51
51
51
51
51
51
51
51
51
51
51
51
51
51
51
51
84
51
51
51
51
51
51
51
51
51
51
51
51
51
51
51
51
51
51
51
51
51
51
51
51
51
51
51
51
51
51
51
51
51
51
51
51
51
51
51
51
51
51
51
51
51
51
51
51
51
51
51
51
51
51
51
51
51
51
51
51
51
51
51
51
51
51
51
51
51
51
51
51
51
51
51
51
51
51
51
51
51
51
51
51
51
51
51
51
51
51
51
51
51
51
51
51
51
51
51
51
51
51
51
51
51
51
51
51
51
51
51
51
51
51
51
51
51
51
51
51
51
51
51
51
51
51
51
51
51
51
51
51
51
51
51
51
51
51
51
51
51
51
51
51
51
51
51
51
51
51
51
51
51
51
51
51
51
51
51
51
51
51
51
51
51
51
51
51
51
51
51
51
51
51
51
51
51
51
51
51
51
51
51
51
51
51
51
51
51
51
51
51
51
51
51
51
51
51
51
51
51
51
51
51
51
51
51
51
51
51
51
51
51
51
51
51
51
51
51
51
51
51
51
51
51
51
51
51
51
51
