P2
# CREATOR: The GIMP's PNM Filter Version 1.0
128 32
255
51
51
51
51
51
51
51
51
51
51
51
51
51
51
51
51
51
51
51
51
51
51
51
51
51
51
51
51
51
51
51
51
51
51
51
51
51
51
51
51
51
51
51
51
51
51
51
51
51
51
51
51
51
51
51
51
51
51
255
168
168
168
51
51
51
51
51
51
51
51
51
51
51
51
51
51
51
51
51
51
51
51
51
51
51
51
51
51
51
51
51
51
51
51
51
51
51
51
51
51
51
51
51
51
51
51
51
51
51
51
51
51
51
51
51
51
51
51
51
51
51
51
51
51
51
51
51
51
51
51
51
51
51
51
51
51
51
51
51
51
51
51
51
51
51
51
51
51
51
51
51
51
51
51
51
51
51
51
51
51
51
51
51
51
51
51
51
51
51
51
51
51
51
51
51
51
51
51
51
51
51
51
51
51
51
51
168
168
255
255
168
51
51
51
51
51
51
51
51
51
51
51
51
51
51
51
51
51
51
51
51
51
51
51
51
51
51
51
51
51
51
51
51
51
51
51
51
51
51
51
51
51
51
51
51
51
51
51
51
51
51
51
51
51
51
51
51
51
51
51
51
51
51
51
51
51
51
51
51
51
51
51
51
51
51
51
51
51
51
51
51
51
51
51
51
51
51
51
51
51
51
51
51
51
51
51
51
51
51
51
51
51
51
51
51
51
51
51
51
51
51
51
51
51
51
51
51
51
51
51
51
51
51
168
168
255
168
255
168
255
51
51
51
51
51
51
51
51
51
51
51
51
51
51
51
51
255
84
255
51
51
51
51
51
51
51
51
51
51
51
51
51
51
51
51
51
51
51
51
51
51
51
51
51
51
51
51
51
51
51
51
51
51
51
51
51
51
51
51
51
51
51
51
51
51
51
51
51
51
51
51
51
51
51
51
51
51
51
51
51
51
51
51
51
51
51
51
51
51
51
51
51
51
51
51
51
51
51
51
51
51
51
51
51
51
51
51
51
51
51
51
51
51
51
51
255
168
168
168
168
168
168
168
168
168
255
168
168
51
51
51
51
51
51
51
51
51
51
51
51
51
51
51
168
168
168
51
51
51
51
51
51
51
51
51
51
51
51
51
51
51
51
51
51
51
51
51
51
51
51
51
51
51
51
51
51
51
51
51
51
51
51
51
51
51
51
51
51
51
51
51
51
51
51
51
51
51
51
51
51
51
51
51
51
51
51
51
51
51
51
51
51
51
51
51
51
51
51
51
51
51
51
51
51
51
51
51
51
51
51
51
51
51
51
51
51
51
51
51
51
51
255
168
168
255
255
255
255
255
255
255
255
168
255
168
168
255
51
51
51
51
51
51
51
51
51
51
51
51
168
168
168
168
168
51
51
51
51
51
51
51
51
51
51
51
51
51
51
51
51
51
51
51
51
51
51
51
51
51
51
51
51
51
51
51
51
51
51
51
51
51
51
51
51
51
51
51
51
51
51
51
51
51
51
51
51
51
51
51
51
51
51
51
51
51
51
51
51
51
51
51
51
51
51
51
51
51
51
51
51
51
51
51
51
51
51
51
51
51
51
51
51
51
51
51
51
51
51
168
168
255
255
255
255
168
168
168
168
168
168
168
255
168
168
168
168
168
168
255
255
51
51
51
255
168
168
168
168
168
168
168
51
51
51
51
51
51
51
51
51
51
51
51
51
51
51
51
51
51
51
51
51
51
51
51
51
51
51
51
51
51
51
51
51
51
51
51
51
51
51
51
51
51
51
51
51
51
51
51
51
51
51
51
51
51
51
51
51
51
51
51
51
51
51
51
51
51
51
51
51
51
51
51
51
51
51
51
51
51
51
51
51
51
51
51
51
51
51
51
51
51
51
51
51
51
168
255
255
255
168
168
168
168
168
168
255
168
168
255
255
168
255
255
255
255
168
168
168
168
168
168
168
255
255
168
168
168
168
51
51
51
51
51
51
51
51
51
51
51
51
51
51
51
51
51
51
51
51
51
51
51
51
51
51
51
51
51
51
51
51
51
51
51
51
51
51
51
51
51
51
51
51
51
51
51
51
51
51
51
51
51
51
51
51
51
51
51
51
51
51
51
51
51
51
51
51
51
51
51
51
51
51
51
51
51
51
51
51
51
51
51
51
51
51
51
51
51
51
51
51
51
51
168
168
255
168
168
168
255
168
168
255
168
255
168
168
255
168
168
168
255
255
255
255
255
255
255
255
255
255
168
168
168
168
255
51
51
51
51
51
51
51
51
51
51
51
51
51
51
51
51
51
51
51
51
51
51
51
51
51
51
51
51
51
51
51
51
51
51
51
51
51
51
51
51
51
51
51
51
51
51
51
51
51
51
51
51
51
51
51
51
51
51
51
51
51
51
51
51
51
51
51
51
51
51
51
51
51
51
51
51
51
51
51
51
51
51
51
51
51
51
51
51
51
51
51
51
51
51
51
168
168
168
168
168
168
255
168
168
255
168
255
168
255
255
168
168
168
168
168
168
168
168
168
168
168
168
168
168
168
168
51
51
51
51
51
51
51
51
51
51
51
51
51
51
51
51
51
51
51
51
51
51
51
51
51
51
51
51
51
51
51
51
51
51
51
51
51
51
51
51
51
51
51
51
51
51
51
51
51
51
51
51
51
51
51
51
51
51
51
51
51
51
51
51
51
51
51
51
51
51
51
51
51
51
51
51
51
51
51
51
51
51
51
51
51
51
51
51
51
51
168
168
168
168
168
168
168
168
168
168
168
168
168
255
168
168
168
255
255
168
255
168
168
255
255
168
168
168
168
168
168
168
168
84
84
84
168
168
168
168
168
168
168
168
168
168
168
168
168
168
168
168
168
168
168
168
168
168
168
168
168
51
51
51
51
51
51
51
51
51
51
51
51
51
51
51
51
51
51
51
51
51
51
51
51
51
51
51
51
51
51
51
51
51
51
51
51
51
51
51
51
51
51
51
51
51
51
51
51
51
51
51
51
51
51
51
51
51
51
51
51
51
51
51
51
51
51
51
168
168
168
168
168
168
168
168
168
168
168
168
255
255
255
255
168
255
168
168
168
168
168
255
255
168
168
168
168
168
168
168
168
168
168
168
168
168
168
168
168
168
168
168
168
168
168
168
168
168
168
168
168
168
168
168
168
168
168
168
168
51
51
51
51
51
51
51
51
51
51
51
51
51
51
51
51
51
51
51
51
51
51
51
51
51
51
51
51
51
51
51
51
51
51
51
51
51
51
51
51
51
51
51
51
51
51
51
51
51
51
51
51
51
51
51
51
51
51
51
51
51
51
51
51
51
51
51
168
168
168
168
168
168
168
168
168
168
168
255
255
255
168
168
168
255
168
168
168
168
168
168
168
168
168
168
168
168
168
168
168
168
168
168
168
168
168
168
168
168
168
168
168
168
168
168
168
168
168
168
168
168
168
168
168
168
168
168
168
51
51
51
51
51
51
51
51
51
51
51
51
51
51
51
51
51
51
51
51
51
51
51
51
51
51
51
51
51
51
51
51
51
51
51
51
51
51
51
51
51
51
51
51
51
51
51
51
51
51
51
51
51
51
51
51
51
51
51
51
51
51
51
51
51
51
51
168
255
255
255
255
255
255
255
255
255
168
168
255
255
168
168
168
255
168
168
84
168
168
168
168
168
168
168
168
168
168
168
168
168
168
168
168
168
168
168
168
168
168
168
168
168
168
168
168
255
255
255
255
255
168
168
168
255
255
255
168
51
51
51
51
51
51
51
51
51
51
51
51
51
51
51
51
51
51
51
51
51
51
51
51
51
51
51
51
51
51
51
51
51
51
51
51
51
51
51
51
51
51
51
51
51
51
51
51
51
51
51
51
51
51
51
51
51
51
51
51
51
51
51
51
51
51
51
255
255
168
168
168
168
168
255
168
168
168
168
168
255
168
168
168
255
168
168
168
168
168
168
168
168
168
168
255
168
168
168
168
168
168
168
168
168
168
168
168
168
168
168
168
168
168
168
168
168
168
168
168
168
255
255
255
255
168
255
168
51
51
51
51
51
51
51
51
51
51
51
51
51
51
51
51
51
51
51
51
51
51
51
51
51
51
51
51
51
51
51
51
51
51
51
51
51
51
51
51
51
51
51
51
51
51
51
51
51
51
51
51
51
51
51
51
51
51
51
51
51
51
51
51
51
51
51
168
168
168
168
255
255
255
168
168
168
84
168
255
255
168
168
168
255
168
168
168
168
255
255
168
168
255
255
255
255
168
255
255
255
255
168
168
168
255
255
255
255
168
168
255
168
168
168
168
168
168
168
168
168
168
168
168
168
168
168
168
51
51
51
51
51
51
51
51
51
51
51
51
51
51
51
51
51
51
51
51
51
51
51
51
51
51
51
51
51
51
51
51
51
51
51
51
51
51
51
51
51
51
51
51
51
51
51
51
51
51
51
51
51
51
51
51
51
51
51
51
51
51
51
51
51
51
51
168
168
255
255
168
168
255
168
168
168
168
168
255
255
168
168
168
255
168
168
168
168
255
255
168
168
255
168
168
255
255
255
255
168
255
255
168
255
255
168
255
255
168
168
255
255
255
255
168
168
168
168
168
168
168
255
168
168
168
168
168
51
51
51
51
51
255
168
51
51
51
51
51
51
51
51
51
51
51
51
51
51
51
51
51
51
51
51
51
51
51
51
51
51
51
51
51
51
51
51
51
51
51
51
51
51
51
51
51
51
51
51
51
51
51
51
51
51
51
51
51
51
51
51
51
51
51
51
255
255
255
168
168
168
168
168
168
168
84
168
168
255
168
168
168
255
168
168
168
255
255
255
168
255
255
168
168
255
255
255
168
168
168
255
168
255
168
168
255
255
168
168
255
255
255
255
168
84
168
255
255
168
168
168
255
255
255
255
168
51
51
51
51
51
255
168
51
51
51
51
51
51
51
51
51
51
51
51
51
51
51
51
51
51
51
51
51
51
51
51
51
51
51
51
51
51
51
51
51
51
51
51
51
51
51
51
51
51
51
51
51
51
51
51
51
51
51
51
51
51
51
51
51
51
51
51
168
168
168
168
168
255
168
168
168
168
168
168
255
168
168
168
168
255
255
168
168
255
255
168
168
255
255
168
168
255
255
255
168
168
255
255
255
255
255
255
255
168
168
255
168
168
255
168
168
168
168
255
255
255
168
168
255
168
168
168
168
51
51
51
51
51
255
168
51
51
51
51
51
51
51
51
51
51
51
51
51
51
51
51
51
51
51
51
51
51
51
51
51
51
51
51
51
51
51
51
51
51
255
168
51
51
255
168
51
51
255
168
51
51
255
168
51
51
255
168
51
51
255
168
51
51
51
51
168
168
168
168
168
255
168
168
168
168
168
168
255
168
168
168
168
168
255
168
255
255
255
168
255
255
255
168
255
255
255
255
168
168
255
255
255
168
168
168
168
168
255
255
168
168
255
168
168
168
255
255
168
255
168
168
168
168
168
168
168
51
51
51
51
51
255
255
255
255
255
168
51
51
255
255
255
255
255
168
51
51
51
51
51
51
51
51
51
51
51
51
51
51
51
51
51
51
51
51
51
51
255
168
51
51
255
168
51
51
255
168
51
51
255
168
51
51
255
168
51
51
255
168
51
51
51
84
168
255
255
255
168
168
255
168
168
168
168
255
255
168
168
168
168
168
255
255
255
255
255
255
255
255
255
255
255
255
255
255
255
255
255
168
255
168
168
168
168
255
255
168
168
255
255
168
168
255
255
168
168
255
255
84
255
255
255
255
168
51
51
51
51
51
255
168
51
84
51
255
168
255
168
51
51
51
51
255
168
51
51
51
51
51
51
51
51
51
51
51
51
51
51
51
51
51
51
51
51
51
255
168
255
168
255
168
51
51
255
168
255
168
255
168
51
51
255
168
255
168
255
168
51
51
51
51
255
255
168
168
168
168
255
255
168
255
255
255
168
168
168
168
168
168
168
168
168
168
255
255
255
168
168
168
168
255
255
168
168
168
168
168
168
255
255
255
255
255
168
168
168
255
255
255
255
255
168
168
168
255
255
168
255
168
168
168
168
51
51
51
51
51
255
168
51
51
51
255
168
255
255
255
255
255
255
255
168
51
51
51
51
51
51
51
51
51
51
51
51
51
51
51
51
51
51
51
51
51
255
168
255
168
255
168
51
51
255
168
255
168
255
168
51
51
255
168
255
168
255
168
51
51
51
51
168
168
168
255
168
168
168
168
255
168
168
168
168
168
168
168
168
168
168
168
168
168
168
168
255
168
168
168
168
255
168
168
168
168
168
168
168
168
168
168
168
168
168
168
168
168
255
255
168
168
168
168
168
255
168
168
168
255
255
255
168
51
51
51
51
51
255
168
51
51
51
255
168
255
168
51
51
51
51
51
51
51
51
51
51
51
51
51
51
51
51
51
51
51
51
51
51
51
51
51
51
51
51
255
168
255
168
51
51
51
51
255
168
255
168
51
51
51
51
255
168
255
168
51
51
51
51
51
168
255
255
255
255
255
255
84
168
168
168
168
168
168
168
168
168
168
255
255
255
168
168
255
255
168
168
168
168
255
168
168
168
168
168
168
84
84
168
168
168
168
168
168
168
168
168
168
168
168
168
255
255
168
168
168
255
168
168
255
168
51
51
51
51
51
255
168
51
51
51
255
168
255
168
51
51
51
51
255
168
51
51
51
51
51
51
51
51
51
51
51
51
51
51
51
51
51
51
51
51
51
51
255
168
255
168
51
51
51
51
255
168
255
168
51
51
51
51
255
168
255
168
51
255
168
51
51
168
168
168
84
84
84
168
168
168
168
168
168
168
168
168
168
168
168
168
168
168
168
168
255
168
168
255
168
255
255
168
255
255
255
255
168
168
168
168
168
168
168
168
168
168
84
168
168
168
168
168
168
168
168
168
168
168
168
168
168
168
51
51
255
168
51
255
255
255
255
255
168
51
51
255
255
255
255
255
168
51
51
51
51
51
51
51
51
51
51
51
51
51
51
51
51
51
51
51
51
51
51
51
51
51
51
51
51
51
51
51
51
51
51
51
51
51
51
51
51
51
51
51
51
51
51
51
51
168
168
168
168
168
168
168
168
168
168
168
168
168
168
168
168
168
168
168
168
168
168
255
255
168
168
168
168
255
168
168
168
255
255
255
255
255
255
255
255
168
168
168
168
168
168
168
168
168
168
168
168
168
168
168
168
168
168
168
168
168
51
51
51
51
51
51
51
51
51
51
51
51
51
51
51
51
51
51
51
51
51
51
51
51
51
51
51
51
51
51
51
51
51
51
51
51
51
51
51
51
51
51
51
51
51
51
51
51
51
51
51
51
51
51
51
51
51
51
51
51
51
51
51
51
51
51
51
51
51
51
51
168
168
168
168
255
255
51
51
51
51
51
51
51
51
51
51
168
168
255
168
168
168
168
255
255
168
168
168
168
168
168
168
168
255
255
255
255
255
255
255
168
168
255
168
255
51
51
51
51
51
51
51
51
51
51
51
51
51
51
51
51
51
51
51
51
51
51
51
51
51
51
51
51
51
51
51
51
51
51
51
51
51
51
51
51
51
51
51
51
51
51
51
51
51
51
51
51
51
51
51
51
51
51
51
51
51
51
51
51
51
51
51
51
51
51
51
51
51
51
51
51
51
51
51
51
51
51
51
51
51
51
51
51
51
51
51
51
51
51
51
51
51
51
168
168
255
168
168
168
168
255
255
168
168
51
51
255
168
168
168
168
168
168
168
168
255
255
255
168
168
168
168
168
168
168
51
51
51
51
51
51
51
51
51
51
51
51
51
51
51
51
51
51
51
51
51
51
51
51
51
51
51
51
51
51
51
51
51
51
51
51
51
51
51
51
51
51
51
51
51
51
51
51
51
51
51
51
51
51
51
51
51
51
51
51
51
51
51
51
51
51
51
51
51
51
51
51
51
51
51
51
51
51
51
51
51
51
51
51
51
51
51
51
51
51
51
51
51
51
51
51
168
168
255
168
168
168
168
255
168
168
51
51
51
51
51
51
51
51
255
168
168
168
168
168
168
168
168
168
255
255
255
168
168
168
168
51
51
51
51
51
51
51
51
51
51
51
51
51
51
51
51
51
51
51
51
51
51
51
51
51
51
51
51
51
51
51
51
51
51
51
51
51
51
51
51
51
51
51
51
51
51
51
51
51
51
51
51
51
51
51
51
51
51
51
51
51
51
51
51
51
51
51
51
51
51
51
51
51
51
51
51
51
51
51
51
51
51
51
51
51
51
51
51
51
51
51
51
51
51
168
168
168
51
51
168
168
168
255
51
51
51
51
51
51
51
51
51
51
51
51
51
168
168
168
168
168
168
255
255
255
255
255
168
168
51
51
51
51
51
51
51
51
51
51
51
51
51
51
51
51
51
51
51
51
51
51
51
51
51
51
51
51
51
51
51
51
51
51
51
51
51
51
51
51
51
51
51
51
51
51
51
51
51
51
51
51
51
51
51
51
51
51
51
51
51
51
51
51
51
51
51
51
51
51
51
51
51
51
51
51
51
51
51
51
51
51
51
51
51
51
51
51
51
51
51
51
51
51
168
51
51
51
51
168
168
51
51
51
51
51
51
51
51
51
51
51
51
51
51
51
51
51
51
168
168
168
168
168
255
255
168
255
51
51
51
51
51
51
51
51
51
51
51
51
51
51
51
51
51
51
51
51
51
51
51
51
51
51
51
51
51
51
51
51
51
51
51
51
51
51
51
51
51
51
51
51
51
51
51
51
51
51
51
51
51
51
51
51
51
51
51
51
51
51
51
51
51
51
51
51
51
51
51
51
51
51
51
51
51
51
51
51
51
51
51
51
51
51
51
51
51
51
51
51
51
51
51
51
51
51
51
51
51
51
51
51
51
51
51
51
51
51
51
51
51
51
51
51
51
51
51
51
51
255
168
168
168
168
168
51
51
51
51
51
51
51
51
51
51
51
51
51
51
51
51
51
51
51
51
51
51
51
51
51
51
51
51
51
51
51
51
51
51
51
51
51
51
51
51
51
51
51
51
51
51
51
51
51
51
51
51
51
51
51
51
51
51
51
51
51
51
51
51
51
51
51
51
51
51
51
51
51
51
51
51
51
51
51
51
51
51
51
51
51
51
51
51
51
51
51
51
51
51
51
51
51
51
51
51
51
51
51
51
51
51
51
51
51
51
51
51
51
51
51
51
51
51
51
51
51
51
51
51
51
168
168
255
51
51
51
51
51
51
51
51
51
51
51
51
51
51
51
51
51
51
51
51
51
51
51
51
51
51
51
51
51
51
51
51
51
51
51
